<?xml version="1.0" standalone="no"?>
<!DOCTYPE svg PUBLIC "-//W3C//DTD SVG 20010904//EN"
 "http://www.w3.org/TR/2001/REC-SVG-20010904/DTD/svg10.dtd">
<svg version="1.0" xmlns="http://www.w3.org/2000/svg"
 width="116.000000pt" height="113.000000pt" viewBox="0 0 116.000000 113.000000"
 preserveAspectRatio="xMidYMid meet">

<g transform="translate(0.000000,113.000000) scale(0.100000,-0.100000)"
fill="#000000" stroke="none">
<path d="M0 565 l0 -565 580 0 580 0 0 565 0 565 -580 0 -580 0 0 -565z m900
223 c67 -34 90 -86 90 -205 l0 -93 -40 0 -40 0 0 89 c0 82 -2 92 -26 120 -14
17 -34 31 -43 31 -15 0 -40 26 -65 68 -13 21 75 14 124 -10z m24 -448 c26 -25
25 -76 -2 -102 -45 -45 -125 -13 -125 51 0 70 75 100 127 51z"/>
</g>
</svg>
